<svg xmlns="http://www.w3.org/2000/svg" viewBox="0 0 215 215">
  <rect width="215" height="215" rx="36" fill="#0a0a0a"/>
  <g fill="#00e040">
    <path d="M71.03 201.56 c-2.35 -0.48 -5.17 -2.02 -7.03 -3.88 -2.23 -2.23 -3.53 -4.51 -5.10 -8.97 -1.78 -5.04 -3.65 -7.87 -5.88 -8.92 -1.89 -0.86 -3.09 -0.65 -8.61 1.51 -4.41 1.74 -7.20 2.65 -10.35 3.40 -2.31 0.55 -2.75 0.59 -7.29 0.59 -4.30 0 -5.04 -0.06 -6.68 -0.48 -6.13 -1.53 -10.75 -5.48 -12.47 -10.62 -0.55 -1.57 -0.59 -1.95 -0.57 -5.17 0 -3.44 0 -3.46 0.78 -5.77 1.03 -2.98 2.71 -6.28 6.63 -13.02 6.17 -10.54 9.93 -18.81 12.47 -27.40 3 -10.06 3.99 -17.15 4.77 -33.80 0.80 -17.51 1.20 -21.44 2.83 -27.82 4.05 -15.75 13.29 -27.84 27.40 -35.84 6.34 -3.61 12.74 -5.79 20.47 -7.03 3.34 -0.52 12.18 -0.52 15.96 0 16.02 2.29 30.28 11.36 39.28 25.07 5.75 8.73 9.64 20.09 11.93 34.92 1.13 7.37 1.57 12.49 1.74 20.41 0.06 3.30 0.19 6.13 0.27 6.28 0.13 0.19 0.48 0.17 1.60 -0.10 3.59 -0.90 5.42 -1.18 7.83 -1.15 1.34 0 2.92 0.08 3.49 0.19 0.65 0.10 1.15 0.08 1.30 -0.04 0.38 -0.31 2.83 -6.72 2.65 -6.89 -0.08 -0.08 -0.88 -0.67 -1.74 -1.30 -7.52 -5.52 -11.23 -15.08 -9.74 -25.11 0.80 -5.48 3.11 -10.14 6.95 -14.13 2.44 -2.52 4.05 -3.72 7.10 -5.23 4.09 -2.04 8.38 -2.90 13.14 -2.65 6.66 0.34 12.03 2.69 16.57 7.24 5.04 5.06 7.56 11.38 7.56 18.92 0 4.56 -0.90 8.52 -2.73 12.18 -3.63 7.18 -10.12 12.07 -18.06 13.56 -2.14 0.42 -7.24 0.46 -9.45 0.08 -1.05 -0.17 -1.57 -0.19 -1.72 -0.04 -0.13 0.13 -0.71 1.47 -1.34 3 l-1.11 2.77 0.55 0.82 c0.86 1.41 1.11 2.39 1.11 4.58 0 2.46 0.06 2.27 -3.42 10.71 -5.84 14.15 -6.03 14.51 -8.88 15.79 -0.82 0.38 -1.43 0.46 -3.02 0.46 -2.69 0.02 -3.78 -0.38 -5.58 -1.99 l-1.39 -1.26 -1.18 0.15 c-2.10 0.25 -1.95 -0.02 -2.46 4.81 -0.19 1.74 -0.71 5.94 -1.15 9.36 -2.27 16.92 -4.89 27.88 -8.48 35.36 -1.74 3.61 -3 5.52 -5.04 7.56 -2.88 2.88 -5.54 3.95 -9.78 3.97 -2.83 0 -4.18 -0.25 -6.19 -1.24 -1.93 -0.94 -3.21 -2.08 -6.89 -6.11 -4.01 -4.39 -5.33 -5.46 -7.33 -5.96 -0.82 -0.21 -1.15 -0.19 -2.04 0.10 -1.72 0.57 -3.36 1.93 -9.26 7.77 -5.96 5.88 -7.92 7.50 -10.71 8.88 -2.71 1.32 -4.54 1.72 -7.96 1.70 -1.57 -0.02 -3.25 -0.10 -3.74 -0.19z m6.05 -9.11 c2.35 -0.94 4.16 -2.41 9.95 -8.10 6.17 -6.07 7.54 -7.20 10.08 -8.42 2.44 -1.18 3.76 -1.45 6.82 -1.45 3.25 0 4.77 0.34 7.14 1.60 2.33 1.24 4.56 3.13 7.45 6.40 3.21 3.63 3.99 4.37 5.25 4.96 1.05 0.46 1.18 0.48 1.99 0.19 1.34 -0.46 2.46 -1.34 3.57 -2.83 1.36 -1.83 3.34 -5.84 4.41 -8.94 3.53 -10.29 6.70 -30.93 8.21 -53.33 0.36 -5.40 0.48 -22.57 0.21 -27.23 -0.46 -7.45 -1.22 -13.77 -2.35 -19.48 -2.08 -10.46 -5 -18.64 -9.07 -25.41 -6.53 -10.88 -17.47 -19.15 -29.21 -22.15 -5 -1.26 -9.76 -1.74 -13.98 -1.36 -8 0.67 -15.37 3.09 -22.15 7.24 -3.38 2.06 -6.05 4.18 -9.05 7.14 -6.21 6.17 -10.23 13.06 -12.79 21.92 -1.60 5.54 -2.35 11.67 -2.83 22.80 -0.69 16.04 -0.86 18.27 -1.81 24.46 -0.94 6.11 -0.90 8.13 0.36 14.38 1.70 8.40 4.87 14.80 7.73 15.66 0.80 0.23 0.97 0.21 1.81 -0.19 1.70 -0.82 2.65 -2.69 2.65 -5.21 0 -0.80 -0.10 -2.88 -0.23 -4.62 -0.42 -5.46 0.10 -9.60 1.36 -10.98 0.65 -0.71 0.78 -0.76 2.25 -0.82 1.68 -0.06 2.29 0.15 2.94 1.03 0.59 0.78 0.69 2.02 0.38 4.68 -0.23 2.02 -0.21 2.86 0.10 6.32 0.71 7.68 -0.04 11.23 -3.02 14.15 -2.06 2.04 -4.37 2.96 -7.47 2.96 -3.07 0 -5.42 -0.90 -7.52 -2.92 -2.25 -2.12 -4.16 -5.54 -5.73 -10.23 -0.46 -1.32 -0.86 -2.39 -0.92 -2.39 -0.06 0 -0.82 1.76 -1.68 3.95 -1.89 4.77 -5.44 11.86 -9.34 18.62 -5.10 8.86 -6.82 12.56 -6.82 14.68 0 1.97 2.08 4.54 4.70 5.79 1.97 0.92 3.88 1.32 6.42 1.30 3.51 -0.02 6.70 -0.82 13.33 -3.40 5.27 -2.06 7.10 -2.52 10.18 -2.67 4.66 -0.23 7.98 0.99 11.04 4.01 2.50 2.50 4.01 5.04 5.88 9.99 1.70 4.54 2.69 6.17 4.41 7.37 1.95 1.34 3.09 1.45 5.35 0.52z m83.96 -59.65 c0.78 -0.40 1.18 -1.15 3.57 -7.05 4.28 -10.46 5.46 -13.42 5.46 -13.75 0 -0.50 -1.53 -1.91 -2.29 -2.08 -0.97 -0.21 -1.78 0.34 -2.29 1.51 -0.23 0.55 -2.04 5.14 -4.03 10.20 -2.52 6.40 -3.57 9.34 -3.49 9.70 0.15 0.61 1.49 1.78 2.04 1.78 0.23 0 0.69 -0.15 1.03 -0.31z m-8.25 -5.27 c0.25 -0.06 0.50 -0.23 0.57 -0.36 0.04 -0.15 1.32 -3.42 2.81 -7.29 1.81 -4.68 2.62 -7.05 2.46 -7.10 -0.40 -0.08 -6.24 1.41 -6.74 1.74 -0.42 0.27 -0.46 0.55 -0.61 4.14 -0.08 2.12 -0.23 4.89 -0.31 6.15 -0.17 2.02 -0.15 2.35 0.17 2.58 0.36 0.27 0.92 0.31 1.66 0.13z m33.76 -33.89 c3.34 -0.86 6.36 -2.60 8.97 -5.17 3.28 -3.21 5.23 -7.31 5.84 -12.22 0.40 -3.13 -0.52 -7.37 -2.31 -10.69 -3.42 -6.34 -9.66 -10.23 -16.38 -10.20 -6.11 0.02 -12.32 3.53 -15.83 8.92 -5.06 7.77 -4.35 17.01 1.83 23.60 4.77 5.12 11.74 7.35 17.89 5.75z"/>
    <path d="M90.70 92.51 c-1.60 -0.36 -2.81 -1.03 -3.95 -2.18 -2.83 -2.92 -4.24 -7.14 -4.24 -12.74 0 -7.01 2.58 -12.72 6.63 -14.72 2.23 -1.09 5.94 -0.90 8.04 0.42 2.12 1.34 4.20 4.64 5.06 8.02 0.97 3.70 0.97 9.41 0 12.89 -0.97 3.49 -2.96 6.40 -5.19 7.60 -1.74 0.94 -4.12 1.22 -6.36 0.71z"/>
    <path d="M120.66 89.34 c-2.10 -0.80 -3.67 -2.58 -4.77 -5.40 -0.86 -2.23 -1.11 -4.18 -0.99 -7.52 0.13 -3.19 0.44 -4.64 1.55 -6.87 0.99 -2.04 2.10 -3.25 3.67 -4.03 1.15 -0.59 1.49 -0.65 3.19 -0.65 1.57 0 2.10 0.08 3 0.50 2.10 0.99 3.78 3.32 4.72 6.53 0.42 1.47 0.48 2.14 0.48 5.46 0 2.96 -0.08 4.07 -0.38 5.14 -0.82 3.04 -2.37 5.31 -4.37 6.40 -1.01 0.55 -1.36 0.63 -3.23 0.67 -1.45 0.04 -2.35 -0.04 -2.90 -0.25z"/>
    <path d="M194.55 82.26 c-0.46 -0.65 -0.42 -1.30 0.19 -3.65 0.92 -3.53 0.55 -7.10 -1.09 -10.25 -1.13 -2.14 -3.67 -4.66 -5.75 -5.65 -1.76 -0.86 -3.80 -1.41 -5.25 -1.41 -2.65 0 -6.49 1.60 -8.67 3.59 -1.30 1.20 -1.39 1.24 -2.48 1.24 -0.63 0 -1.24 -0.10 -1.39 -0.25 -0.15 -0.15 -0.25 -0.73 -0.25 -1.30 0 -1.03 0.04 -1.09 1.32 -2.33 1.57 -1.49 3.78 -2.79 6.13 -3.61 1.57 -0.52 1.91 -0.57 5.14 -0.59 3.93 0 5.12 0.23 7.62 1.49 4.96 2.48 7.92 6.99 8.55 13.02 0.40 3.65 -0.40 9.15 -1.41 9.91 -0.19 0.13 -0.80 0.25 -1.34 0.25 -0.80 0 -1.07 -0.10 -1.32 -0.46z"/>
  </g>
</svg>
