<svg xmlns="http://www.w3.org/2000/svg" viewBox="0 0 64 64" fill="none">
  <defs>
    <linearGradient id="g" x1="0" y1="0" x2="64" y2="64" gradientUnits="userSpaceOnUse">
      <stop stop-color="#33ff66"/>
      <stop offset="1" stop-color="#00cc34"/>
    </linearGradient>
  </defs>
  <!-- ghost body -->
  <path d="M32 5C20.4 5 11 14.4 11 26v28.2c0 2.3 2.7 3.6 4.5 2.1l3.6-3a3 3 0 0 1 3.9.1l3.3 2.9a3 3 0 0 0 4 0l2.9-2.6a3 3 0 0 1 4 0l2.9 2.6a3 3 0 0 0 4 0l3.3-2.9a3 3 0 0 1 3.9-.1l3.6 3c1.8 1.5 4.5.2 4.5-2.1V26C53 14.4 43.6 5 32 5Z"
        fill="url(#g)" opacity="0.16" stroke="url(#g)" stroke-width="2.5"/>
  <!-- eyes -->
  <circle cx="24" cy="27" r="4.2" fill="url(#g)"/>
  <circle cx="40" cy="27" r="4.2" fill="url(#g)"/>
  <!-- scan line -->
  <path d="M14 38h36" stroke="#00ff41" stroke-width="2.5" stroke-linecap="round" opacity="0.8"/>
</svg>
